<mxfile host="app.diagrams.net" modified="2023-05-06T05:48:13.997Z" agent="Mozilla/5.0 (Macintosh; Intel Mac OS X 10_15_7) AppleWebKit/537.36 (KHTML, like Gecko) Chrome/113.0.0.0 Safari/537.36" etag="OYSQm3bfAaZeOpkKWZxM" version="21.1.2" type="device">
  <diagram name="Seite-1" id="9n_mVQp0q794nJmX19Bo">
    <mxGraphModel dx="1809" dy="863" grid="1" gridSize="10" guides="1" tooltips="1" connect="1" arrows="1" fold="1" page="1" pageScale="1" pageWidth="1169" pageHeight="827" math="0" shadow="0">
      <root>
        <mxCell id="0" />
        <mxCell id="1" parent="0" />
        <mxCell id="gDdR1oW2WRKESxy-zavt-38" value="" style="group" vertex="1" connectable="0" parent="1">
          <mxGeometry x="10" y="40" width="930" height="540" as="geometry" />
        </mxCell>
        <mxCell id="gDdR1oW2WRKESxy-zavt-1" value="&lt;font style=&quot;font-size: 18px;&quot;&gt;Stakeholder&lt;/font&gt;" style="rounded=0;whiteSpace=wrap;html=1;" vertex="1" parent="gDdR1oW2WRKESxy-zavt-38">
          <mxGeometry width="930" height="79.7623089983022" as="geometry" />
        </mxCell>
        <mxCell id="gDdR1oW2WRKESxy-zavt-2" value="&lt;font style=&quot;font-size: 18px;&quot;&gt;Kontrollen&lt;/font&gt;" style="rounded=0;whiteSpace=wrap;html=1;" vertex="1" parent="gDdR1oW2WRKESxy-zavt-38">
          <mxGeometry x="41.64179104477612" y="172.81833616298815" width="166.56716417910448" height="79.7623089983022" as="geometry" />
        </mxCell>
        <mxCell id="gDdR1oW2WRKESxy-zavt-13" value="&lt;font style=&quot;font-size: 18px;&quot;&gt;bestimmen&lt;/font&gt;" style="edgeStyle=orthogonalEdgeStyle;rounded=0;orthogonalLoop=1;jettySize=auto;html=1;exitX=0.25;exitY=1;exitDx=0;exitDy=0;entryX=0.5;entryY=0;entryDx=0;entryDy=0;" edge="1" parent="gDdR1oW2WRKESxy-zavt-38" source="gDdR1oW2WRKESxy-zavt-1" target="gDdR1oW2WRKESxy-zavt-2">
          <mxGeometry relative="1" as="geometry">
            <mxPoint as="offset" />
          </mxGeometry>
        </mxCell>
        <mxCell id="gDdR1oW2WRKESxy-zavt-18" style="edgeStyle=orthogonalEdgeStyle;rounded=0;orthogonalLoop=1;jettySize=auto;html=1;exitX=0;exitY=0.5;exitDx=0;exitDy=0;entryX=0.5;entryY=1;entryDx=0;entryDy=0;" edge="1" parent="gDdR1oW2WRKESxy-zavt-38" source="gDdR1oW2WRKESxy-zavt-3" target="gDdR1oW2WRKESxy-zavt-2">
          <mxGeometry relative="1" as="geometry" />
        </mxCell>
        <mxCell id="gDdR1oW2WRKESxy-zavt-33" value="&lt;font style=&quot;font-size: 18px;&quot;&gt;könne reduziert werden&lt;/font&gt;" style="edgeLabel;html=1;align=center;verticalAlign=middle;resizable=0;points=[];" vertex="1" connectable="0" parent="gDdR1oW2WRKESxy-zavt-18">
          <mxGeometry x="-0.0714" y="-3" relative="1" as="geometry">
            <mxPoint x="-25" as="offset" />
          </mxGeometry>
        </mxCell>
        <mxCell id="gDdR1oW2WRKESxy-zavt-3" value="&lt;font style=&quot;font-size: 18px;&quot;&gt;Schwachstellen&lt;/font&gt;" style="rounded=0;whiteSpace=wrap;html=1;" vertex="1" parent="gDdR1oW2WRKESxy-zavt-38">
          <mxGeometry x="222.08955223880596" y="305.75551782682516" width="166.56716417910448" height="79.7623089983022" as="geometry" />
        </mxCell>
        <mxCell id="gDdR1oW2WRKESxy-zavt-16" style="edgeStyle=orthogonalEdgeStyle;rounded=0;orthogonalLoop=1;jettySize=auto;html=1;exitX=1;exitY=0.75;exitDx=0;exitDy=0;entryX=0.5;entryY=0;entryDx=0;entryDy=0;" edge="1" parent="gDdR1oW2WRKESxy-zavt-38" source="gDdR1oW2WRKESxy-zavt-2" target="gDdR1oW2WRKESxy-zavt-3">
          <mxGeometry relative="1" as="geometry" />
        </mxCell>
        <mxCell id="gDdR1oW2WRKESxy-zavt-17" value="&lt;font style=&quot;font-size: 18px;&quot;&gt;aufweisen&lt;/font&gt;" style="edgeLabel;html=1;align=center;verticalAlign=middle;resizable=0;points=[];" vertex="1" connectable="0" parent="gDdR1oW2WRKESxy-zavt-16">
          <mxGeometry x="-0.2167" y="1" relative="1" as="geometry">
            <mxPoint as="offset" />
          </mxGeometry>
        </mxCell>
        <mxCell id="gDdR1oW2WRKESxy-zavt-4" value="&lt;font style=&quot;font-size: 18px;&quot;&gt;Risiken&lt;/font&gt;" style="rounded=0;whiteSpace=wrap;html=1;" vertex="1" parent="gDdR1oW2WRKESxy-zavt-38">
          <mxGeometry x="610.7462686567163" y="252.58064516129033" width="166.56716417910448" height="79.7623089983022" as="geometry" />
        </mxCell>
        <mxCell id="gDdR1oW2WRKESxy-zavt-11" style="edgeStyle=orthogonalEdgeStyle;rounded=0;orthogonalLoop=1;jettySize=auto;html=1;entryX=0.5;entryY=0;entryDx=0;entryDy=0;" edge="1" parent="gDdR1oW2WRKESxy-zavt-38" target="gDdR1oW2WRKESxy-zavt-4">
          <mxGeometry relative="1" as="geometry">
            <mxPoint x="693.8873297282496" y="78.38709677419355" as="sourcePoint" />
          </mxGeometry>
        </mxCell>
        <mxCell id="gDdR1oW2WRKESxy-zavt-12" value="&lt;font style=&quot;font-size: 18px;&quot;&gt;reduzieren&lt;/font&gt;" style="edgeLabel;html=1;align=center;verticalAlign=middle;resizable=0;points=[];" vertex="1" connectable="0" parent="gDdR1oW2WRKESxy-zavt-11">
          <mxGeometry x="-0.1111" y="2" relative="1" as="geometry">
            <mxPoint as="offset" />
          </mxGeometry>
        </mxCell>
        <mxCell id="gDdR1oW2WRKESxy-zavt-14" style="edgeStyle=orthogonalEdgeStyle;rounded=0;orthogonalLoop=1;jettySize=auto;html=1;exitX=1;exitY=0.25;exitDx=0;exitDy=0;entryX=0.25;entryY=0;entryDx=0;entryDy=0;" edge="1" parent="gDdR1oW2WRKESxy-zavt-38" source="gDdR1oW2WRKESxy-zavt-2" target="gDdR1oW2WRKESxy-zavt-4">
          <mxGeometry relative="1" as="geometry" />
        </mxCell>
        <mxCell id="gDdR1oW2WRKESxy-zavt-15" value="&lt;font style=&quot;font-size: 18px;&quot;&gt;reduzieren&lt;/font&gt;" style="edgeLabel;html=1;align=center;verticalAlign=middle;resizable=0;points=[];" vertex="1" connectable="0" parent="gDdR1oW2WRKESxy-zavt-14">
          <mxGeometry x="-0.0983" y="2" relative="1" as="geometry">
            <mxPoint as="offset" />
          </mxGeometry>
        </mxCell>
        <mxCell id="gDdR1oW2WRKESxy-zavt-30" style="edgeStyle=orthogonalEdgeStyle;rounded=0;orthogonalLoop=1;jettySize=auto;html=1;exitX=0.75;exitY=0;exitDx=0;exitDy=0;entryX=0;entryY=0.333;entryDx=0;entryDy=0;entryPerimeter=0;" edge="1" parent="gDdR1oW2WRKESxy-zavt-38" source="gDdR1oW2WRKESxy-zavt-3" target="gDdR1oW2WRKESxy-zavt-4">
          <mxGeometry relative="1" as="geometry" />
        </mxCell>
        <mxCell id="gDdR1oW2WRKESxy-zavt-31" value="&lt;font style=&quot;font-size: 18px;&quot;&gt;führen zu&lt;/font&gt;" style="edgeLabel;html=1;align=center;verticalAlign=middle;resizable=0;points=[];" vertex="1" connectable="0" parent="gDdR1oW2WRKESxy-zavt-30">
          <mxGeometry x="-0.1535" y="1" relative="1" as="geometry">
            <mxPoint x="34" as="offset" />
          </mxGeometry>
        </mxCell>
        <mxCell id="gDdR1oW2WRKESxy-zavt-5" value="&lt;font style=&quot;font-size: 18px;&quot;&gt;Assets&lt;/font&gt;" style="rounded=0;whiteSpace=wrap;html=1;" vertex="1" parent="gDdR1oW2WRKESxy-zavt-38">
          <mxGeometry x="763.4328358208954" y="425.39898132427845" width="166.56716417910448" height="79.7623089983022" as="geometry" />
        </mxCell>
        <mxCell id="gDdR1oW2WRKESxy-zavt-22" style="edgeStyle=orthogonalEdgeStyle;rounded=0;orthogonalLoop=1;jettySize=auto;html=1;exitX=1;exitY=0.5;exitDx=0;exitDy=0;entryX=0;entryY=0.5;entryDx=0;entryDy=0;" edge="1" parent="gDdR1oW2WRKESxy-zavt-38" source="gDdR1oW2WRKESxy-zavt-6" target="gDdR1oW2WRKESxy-zavt-5">
          <mxGeometry relative="1" as="geometry" />
        </mxCell>
        <mxCell id="gDdR1oW2WRKESxy-zavt-23" value="&lt;font style=&quot;font-size: 18px;&quot;&gt;für&lt;/font&gt;" style="edgeLabel;html=1;align=center;verticalAlign=middle;resizable=0;points=[];" vertex="1" connectable="0" parent="gDdR1oW2WRKESxy-zavt-22">
          <mxGeometry x="0.2571" y="2" relative="1" as="geometry">
            <mxPoint x="-18" y="2" as="offset" />
          </mxGeometry>
        </mxCell>
        <mxCell id="gDdR1oW2WRKESxy-zavt-24" style="edgeStyle=orthogonalEdgeStyle;rounded=0;orthogonalLoop=1;jettySize=auto;html=1;exitX=1;exitY=0.25;exitDx=0;exitDy=0;entryX=0.5;entryY=1;entryDx=0;entryDy=0;" edge="1" parent="gDdR1oW2WRKESxy-zavt-38" source="gDdR1oW2WRKESxy-zavt-6" target="gDdR1oW2WRKESxy-zavt-4">
          <mxGeometry relative="1" as="geometry" />
        </mxCell>
        <mxCell id="gDdR1oW2WRKESxy-zavt-25" value="&lt;font style=&quot;font-size: 18px;&quot;&gt;erhöht&lt;/font&gt;" style="edgeLabel;html=1;align=center;verticalAlign=middle;resizable=0;points=[];" vertex="1" connectable="0" parent="gDdR1oW2WRKESxy-zavt-24">
          <mxGeometry x="0.68" y="-2" relative="1" as="geometry">
            <mxPoint x="-2" y="12" as="offset" />
          </mxGeometry>
        </mxCell>
        <mxCell id="gDdR1oW2WRKESxy-zavt-26" style="edgeStyle=orthogonalEdgeStyle;rounded=0;orthogonalLoop=1;jettySize=auto;html=1;exitX=0.5;exitY=0;exitDx=0;exitDy=0;entryX=1;entryY=0.5;entryDx=0;entryDy=0;" edge="1" parent="gDdR1oW2WRKESxy-zavt-38" source="gDdR1oW2WRKESxy-zavt-6" target="gDdR1oW2WRKESxy-zavt-3">
          <mxGeometry relative="1" as="geometry" />
        </mxCell>
        <mxCell id="gDdR1oW2WRKESxy-zavt-27" value="&lt;font style=&quot;font-size: 18px;&quot;&gt;werden ausgenutzt&lt;/font&gt;" style="edgeLabel;html=1;align=center;verticalAlign=middle;resizable=0;points=[];" vertex="1" connectable="0" parent="gDdR1oW2WRKESxy-zavt-26">
          <mxGeometry x="-0.2154" y="2" relative="1" as="geometry">
            <mxPoint x="2" y="21" as="offset" />
          </mxGeometry>
        </mxCell>
        <mxCell id="gDdR1oW2WRKESxy-zavt-6" value="&lt;font style=&quot;font-size: 18px;&quot;&gt;Bedrohungen&lt;/font&gt;" style="rounded=0;whiteSpace=wrap;html=1;" vertex="1" parent="gDdR1oW2WRKESxy-zavt-38">
          <mxGeometry x="402.53731343283584" y="425.39898132427845" width="166.56716417910448" height="79.7623089983022" as="geometry" />
        </mxCell>
        <mxCell id="gDdR1oW2WRKESxy-zavt-20" style="edgeStyle=orthogonalEdgeStyle;rounded=0;orthogonalLoop=1;jettySize=auto;html=1;exitX=1;exitY=0.5;exitDx=0;exitDy=0;entryX=0;entryY=0.5;entryDx=0;entryDy=0;" edge="1" parent="gDdR1oW2WRKESxy-zavt-38" source="gDdR1oW2WRKESxy-zavt-7" target="gDdR1oW2WRKESxy-zavt-6">
          <mxGeometry relative="1" as="geometry" />
        </mxCell>
        <mxCell id="gDdR1oW2WRKESxy-zavt-21" value="&lt;font style=&quot;font-size: 18px;&quot;&gt;verursachen&lt;/font&gt;" style="edgeLabel;html=1;align=center;verticalAlign=middle;resizable=0;points=[];" vertex="1" connectable="0" parent="gDdR1oW2WRKESxy-zavt-20">
          <mxGeometry x="0.3143" y="-2" relative="1" as="geometry">
            <mxPoint x="-44" y="-2" as="offset" />
          </mxGeometry>
        </mxCell>
        <mxCell id="gDdR1oW2WRKESxy-zavt-28" style="edgeStyle=orthogonalEdgeStyle;rounded=0;orthogonalLoop=1;jettySize=auto;html=1;exitX=0.5;exitY=1;exitDx=0;exitDy=0;entryX=0.5;entryY=1;entryDx=0;entryDy=0;" edge="1" parent="gDdR1oW2WRKESxy-zavt-38" source="gDdR1oW2WRKESxy-zavt-7" target="gDdR1oW2WRKESxy-zavt-5">
          <mxGeometry relative="1" as="geometry">
            <Array as="points">
              <mxPoint x="83" y="520" />
              <mxPoint x="847" y="520" />
            </Array>
          </mxGeometry>
        </mxCell>
        <mxCell id="gDdR1oW2WRKESxy-zavt-29" value="&lt;font style=&quot;font-size: 18px;&quot;&gt;werden missbraucht oder beschädigt&lt;/font&gt;" style="edgeLabel;html=1;align=center;verticalAlign=middle;resizable=0;points=[];" vertex="1" connectable="0" parent="gDdR1oW2WRKESxy-zavt-28">
          <mxGeometry x="0.2786" y="2" relative="1" as="geometry">
            <mxPoint x="-78" as="offset" />
          </mxGeometry>
        </mxCell>
        <mxCell id="gDdR1oW2WRKESxy-zavt-7" value="&lt;font style=&quot;font-size: 18px;&quot;&gt;Täter&lt;/font&gt;" style="rounded=0;whiteSpace=wrap;html=1;" vertex="1" parent="gDdR1oW2WRKESxy-zavt-38">
          <mxGeometry y="425.39898132427845" width="166.56716417910448" height="79.7623089983022" as="geometry" />
        </mxCell>
        <mxCell id="gDdR1oW2WRKESxy-zavt-36" value="" style="endArrow=classic;html=1;rounded=0;entryX=0.5;entryY=0;entryDx=0;entryDy=0;exitX=0.908;exitY=0.999;exitDx=0;exitDy=0;exitPerimeter=0;" edge="1" parent="gDdR1oW2WRKESxy-zavt-38" source="gDdR1oW2WRKESxy-zavt-1" target="gDdR1oW2WRKESxy-zavt-5">
          <mxGeometry width="50" height="50" relative="1" as="geometry">
            <mxPoint x="509.27510438770616" y="278.7096774193548" as="sourcePoint" />
            <mxPoint x="554.7460958508942" y="235.16129032258064" as="targetPoint" />
          </mxGeometry>
        </mxCell>
        <mxCell id="gDdR1oW2WRKESxy-zavt-37" value="&lt;font style=&quot;font-size: 18px;&quot;&gt;schätzen&lt;/font&gt;" style="edgeLabel;html=1;align=center;verticalAlign=middle;resizable=0;points=[];" vertex="1" connectable="0" parent="gDdR1oW2WRKESxy-zavt-36">
          <mxGeometry x="-0.3347" y="4" relative="1" as="geometry">
            <mxPoint x="-2" y="47" as="offset" />
          </mxGeometry>
        </mxCell>
      </root>
    </mxGraphModel>
  </diagram>
</mxfile>
